<?xml version="1.0" encoding="UTF-8"?>
<svg id="Camada_1" xmlns="http://www.w3.org/2000/svg" version="1.1" xmlns:xlink="http://www.w3.org/1999/xlink" viewBox="0 0 348.55 322.79">
  <!-- Generator: Adobe Illustrator 30.1.0, SVG Export Plug-In . SVG Version: 2.1.1 Build 136)  -->
  <defs>
    <style>
      .st0 {
        fill: #2a7153;
      }

      .st1 {
        fill: #fff;
      }

      .st2 {
        fill: none;
      }

      .st3 {
        clip-path: url(#clippath-1);
      }

      .st4 {
        fill: #0f0f1a;
      }

      .st5 {
        fill: #2b7154;
      }

      .st6 {
        fill: url(#Gradiente_sem_nome_24);
      }

      .st7 {
        fill: #0e4033;
      }

      .st8 {
        fill: #9bd0b2;
      }

      .st9 {
        fill: url(#Gradiente_sem_nome_242);
      }

      .st10 {
        clip-path: url(#clippath-2);
      }

      .st11 {
        clip-path: url(#clippath);
      }

      .st12 {
        fill: url(#Gradiente_sem_nome_241);
      }
    </style>
    <clipPath id="clippath">
      <ellipse class="st2" cx="176.09" cy="718.42" rx="126.16" ry="127.23"/>
    </clipPath>
    <linearGradient id="Gradiente_sem_nome_24" data-name="Gradiente sem nome 24" x1="97.16" y1="616.88" x2="168.49" y2="662.45" gradientTransform="translate(306.42 19.99) rotate(27.89)" gradientUnits="userSpaceOnUse">
      <stop offset="0" stop-color="#fff"/>
      <stop offset=".14" stop-color="#fcfcfc"/>
      <stop offset=".24" stop-color="#f3f3f3"/>
      <stop offset=".32" stop-color="#e4e4e4"/>
      <stop offset=".39" stop-color="#cfcfcf"/>
      <stop offset=".45" stop-color="#b4b4b4"/>
      <stop offset=".46" stop-color="#b3b3b3"/>
    </linearGradient>
    <clipPath id="clippath-1">
      <ellipse class="st2" cx="176.09" cy="164.33" rx="126.16" ry="127.23"/>
    </clipPath>
    <linearGradient id="Gradiente_sem_nome_241" data-name="Gradiente sem nome 24" y1="62.8" x2="168.49" y2="108.37" gradientTransform="translate(47.22 -44.38) rotate(27.89)" xlink:href="#Gradiente_sem_nome_24"/>
    <clipPath id="clippath-2">
      <ellipse class="st2" cx="2376.09" cy="164.33" rx="126.16" ry="127.23"/>
    </clipPath>
    <linearGradient id="Gradiente_sem_nome_242" data-name="Gradiente sem nome 24" x1="2297.16" y1="62.8" x2="2368.49" y2="108.37" gradientTransform="translate(302.79 -1073.54) rotate(27.89)" xlink:href="#Gradiente_sem_nome_24"/>
  </defs>
  <g>
    <circle class="st8" cx="169.49" cy="715.48" r="130.45"/>
    <ellipse class="st5" cx="176.09" cy="718.42" rx="126.16" ry="127.23"/>
    <g class="st11">
      <path class="st7" d="M38.41,765.19s13.92-42.4,63.5-59.36c49.58-16.96,54.15,3.26,98.5-45.66,0,0,17.61-42.4,60.67-37.18,43.06,5.22,90.02,70.88,90.02,70.88l-7.83,148.96-159.83,34.57-152-8.48,6.96-103.72Z"/>
    </g>
    <ellipse class="st6" cx="112.96" cy="626.98" rx="20.93" ry="12.17" transform="translate(-280.18 125.68) rotate(-27.89)"/>
    <path class="st0" d="M165.36,753.7c29.14-2.17,46.97-8.7,50.45-21.74,3.48-13.05,28.27-10,28.27-10,18.66,0,43.75-14.71,56.05-22.74-.6-3.59-1.32-7.13-2.21-10.61-34.05,31.91-70.59,27.23-74.28,19.44-3.91-8.26,9.13-11.31,9.13-11.31,37.84-3.91,53.06-30.88,53.06-30.88-20.01,21.74-46.53,23.92-46.53,23.92,0,0-25.66-3.48-27.83,24.79-2.17,28.27-46.97,21.31-46.97,21.31-27.83-1.74-64.37,36.53-64.37,36.53-5.54,7.78-15.83,13.75-27.48,18.31,2.71,3.88,5.63,7.61,8.75,11.16,9.47-3.33,18.54-8.4,26.12-15.98,33.49-33.49,57.84-32.18,57.84-32.18Z"/>
    <path class="st0" d="M218.53,787.51c31.44,7.16,55.51-2.51,70.02-11.7,2.77-5.43,5.15-11.09,7.12-16.95-16.23,12.41-50.58,20.42-75.4,15.6-31.31-6.09-72.19,21.75-90.02,36.1-9.47,7.62-22.38,8.13-32.4,6.93,2.71,2.15,5.49,4.2,8.37,6.12,17.51-.08,36.81-11.93,53.18-24.79,24.35-19.14,59.15-11.31,59.15-11.31Z"/>
  </g>
  <g>
    <path d="M407.13,713.51c-1.62,3.38-3.84,6.2-6.66,8.48-2.83,2.28-6.13,3.98-9.91,5.12-3.78,1.14-7.84,1.71-12.17,1.71h-12.88v23.12h-16.96v-77.07h31.49c4.62,0,8.75.64,12.39,1.93,3.63,1.29,6.72,3.1,9.25,5.45,2.53,2.35,4.48,5.16,5.83,8.42,1.36,3.27,2.04,6.88,2.04,10.84v.22c0,4.48-.81,8.41-2.42,11.78ZM392.37,701.84c0-3.82-1.23-6.72-3.69-8.7-2.46-1.98-5.82-2.97-10.07-2.97h-13.1v23.56h13.43c4.26,0,7.56-1.12,9.91-3.36,2.35-2.24,3.52-5.01,3.52-8.31v-.22Z"/>
    <path d="M454.91,751.94v-6.39c-2.06,2.28-4.51,4.09-7.38,5.45-2.86,1.36-6.35,2.04-10.46,2.04-2.79,0-5.41-.38-7.87-1.16-2.46-.77-4.61-1.93-6.44-3.47-1.84-1.54-3.29-3.43-4.35-5.67-1.06-2.24-1.6-4.83-1.6-7.76v-.22c0-3.23.59-6.02,1.76-8.37,1.17-2.35,2.81-4.29,4.9-5.83,2.09-1.54,4.59-2.7,7.49-3.47,2.9-.77,6.11-1.16,9.63-1.16,3.01,0,5.63.22,7.87.66,2.24.44,4.42,1.03,6.55,1.76v-.99c0-3.52-1.06-6.2-3.19-8.04-2.13-1.83-5.28-2.75-9.47-2.75-3.23,0-6.07.28-8.53.83-2.46.55-5.05,1.34-7.76,2.37l-4.18-12.77c3.23-1.39,6.61-2.53,10.13-3.41,3.52-.88,7.78-1.32,12.77-1.32,9.17,0,15.85,2.24,20.04,6.72,4.18,4.48,6.28,10.72,6.28,18.72v34.24h-16.18ZM455.24,728.15c-1.47-.66-3.1-1.19-4.9-1.6-1.8-.4-3.73-.61-5.78-.61-3.6,0-6.42.7-8.48,2.09-2.06,1.39-3.08,3.41-3.08,6.05v.22c0,2.28.84,4.04,2.53,5.28,1.69,1.25,3.89,1.87,6.61,1.87,3.96,0,7.14-.95,9.52-2.86,2.38-1.91,3.58-4.4,3.58-7.49v-2.97Z"/>
    <path d="M486.28,751.94v-80.37h16.73v80.37h-16.73Z"/>
    <path d="M553.33,751.94v-6.39c-2.05,2.28-4.51,4.09-7.38,5.45-2.86,1.36-6.35,2.04-10.46,2.04-2.79,0-5.41-.38-7.87-1.16-2.46-.77-4.61-1.93-6.44-3.47-1.84-1.54-3.29-3.43-4.35-5.67-1.06-2.24-1.6-4.83-1.6-7.76v-.22c0-3.23.59-6.02,1.76-8.37,1.17-2.35,2.81-4.29,4.9-5.83,2.09-1.54,4.59-2.7,7.49-3.47,2.9-.77,6.11-1.16,9.63-1.16,3.01,0,5.63.22,7.87.66,2.24.44,4.42,1.03,6.55,1.76v-.99c0-3.52-1.06-6.2-3.19-8.04-2.13-1.83-5.28-2.75-9.47-2.75-3.23,0-6.07.28-8.53.83-2.46.55-5.05,1.34-7.76,2.37l-4.18-12.77c3.23-1.39,6.61-2.53,10.13-3.41,3.52-.88,7.78-1.32,12.77-1.32,9.17,0,15.85,2.24,20.04,6.72,4.18,4.48,6.28,10.72,6.28,18.72v34.24h-16.19ZM553.66,728.15c-1.47-.66-3.1-1.19-4.9-1.6-1.8-.4-3.73-.61-5.78-.61-3.6,0-6.42.7-8.48,2.09-2.06,1.39-3.08,3.41-3.08,6.05v.22c0,2.28.84,4.04,2.53,5.28,1.69,1.25,3.89,1.87,6.61,1.87,3.96,0,7.14-.95,9.52-2.86,2.38-1.91,3.58-4.4,3.58-7.49v-2.97Z"/>
    <path d="M621.26,751.94v-32.84c0-3.95-.88-6.94-2.64-8.95s-4.26-3.02-7.49-3.02-5.78,1.01-7.65,3.02c-1.87,2.01-2.81,5-2.81,8.95v32.84h-16.74v-59.01h16.74v8.44c.95-1.26,2-2.46,3.14-3.6,1.14-1.15,2.4-2.16,3.8-3.05,1.39-.89,2.93-1.59,4.62-2.11,1.69-.52,3.6-.78,5.73-.78,6.39,0,11.32,1.95,14.81,5.83,3.49,3.89,5.23,9.25,5.23,16.07v38.2h-16.73Z"/>
    <path d="M679.83,751.99c-2.13.62-4.59.94-7.38.94-2.57,0-4.9-.28-6.99-.83s-3.89-1.52-5.39-2.92c-1.5-1.39-2.68-3.21-3.52-5.45-.84-2.24-1.27-5.08-1.27-8.53v-27.96h-7.05v-14.31h7.05v-15.08h16.73v15.08h13.87v14.31h-13.87v25.21c0,3.82,1.8,5.73,5.39,5.73,2.94,0,5.69-.7,8.26-2.09v13.43c-1.76,1.03-3.71,1.85-5.83,2.48Z"/>
    <path d="M698.99,751.94v-59.01h16.74v59.01h-16.74ZM700.2,686.43l12.44-19.49,14.42,6.28-14.09,13.21h-12.77Z"/>
    <path d="M766.14,709.33c-5.58,0-9.96,1.69-13.16,5.06-3.19,3.38-4.79,8.63-4.79,15.74v21.8h-16.74v-59.01h16.74v11.89c1.69-4.04,4-7.27,6.94-9.69,2.93-2.42,6.9-3.52,11.89-3.3v17.51h-.88Z"/>
    <path d="M777.81,686.43v-14.86h17.62v14.86h-17.62ZM778.25,751.94v-59.01h16.74v59.01h-16.74Z"/>
    <path d="M912.13,751.94l-9.8-21.58h-45.47l-9.8,21.58h-5.94l35.89-77.62h5.5l35.89,77.62h-6.28ZM879.65,680.59l-20.37,44.59h40.62l-20.26-44.59Z"/>
    <path d="M988.87,709.33c-1.62,3.08-3.8,5.65-6.55,7.71-2.75,2.06-5.95,3.6-9.58,4.62-3.63,1.03-7.47,1.54-11.5,1.54h-20.81v28.74h-5.72v-77.07h27.96c4.26,0,8.13.53,11.62,1.6,3.49,1.06,6.5,2.61,9.03,4.62,2.53,2.02,4.5,4.48,5.89,7.38,1.39,2.9,2.09,6.22,2.09,9.96v.22c0,4.04-.81,7.6-2.42,10.68ZM985.56,698.76c0-3.1-.57-5.81-1.71-8.14-1.14-2.33-2.74-4.26-4.79-5.81-2.06-1.55-4.51-2.73-7.38-3.54s-6.02-1.22-9.47-1.22h-21.8v37.98h21.14c3.6,0,6.86-.44,9.8-1.33,2.93-.89,5.45-2.16,7.54-3.82s3.72-3.67,4.9-6.04c1.17-2.36,1.76-4.98,1.76-7.86v-.22Z"/>
    <path d="M1009.01,751.94v-77.07h5.72v77.07h-5.72Z"/>
  </g>
  <rect class="st4" x="29.52" y="-528.26" width="1080" height="322.79"/>
  <g>
    <circle class="st8" cx="169.49" cy="161.4" r="130.45"/>
    <ellipse class="st5" cx="176.09" cy="164.33" rx="126.16" ry="127.23"/>
    <g class="st3">
      <path class="st7" d="M38.41,211.1s13.92-42.4,63.5-59.36c49.58-16.96,54.15,3.26,98.5-45.66,0,0,17.61-42.4,60.67-37.18,43.06,5.22,90.02,70.88,90.02,70.88l-7.83,148.96-159.83,34.57-152-8.48,6.96-103.72Z"/>
    </g>
    <ellipse class="st12" cx="112.96" cy="72.89" rx="20.93" ry="12.17" transform="translate(-20.98 61.31) rotate(-27.89)"/>
    <path class="st0" d="M165.36,199.61c29.14-2.17,46.97-8.7,50.45-21.74,3.48-13.05,28.27-10,28.27-10,18.66,0,43.75-14.71,56.05-22.74-.6-3.59-1.32-7.13-2.21-10.61-34.05,31.91-70.59,27.23-74.28,19.44-3.91-8.26,9.13-11.31,9.13-11.31,37.84-3.91,53.06-30.88,53.06-30.88-20.01,21.74-46.53,23.92-46.53,23.92,0,0-25.66-3.48-27.83,24.79-2.17,28.27-46.97,21.31-46.97,21.31-27.83-1.74-64.37,36.53-64.37,36.53-5.54,7.78-15.83,13.75-27.48,18.31,2.71,3.88,5.63,7.61,8.75,11.16,9.47-3.33,18.54-8.4,26.12-15.98,33.49-33.49,57.84-32.18,57.84-32.18Z"/>
    <path class="st0" d="M218.53,233.42c31.44,7.16,55.51-2.51,70.02-11.7,2.77-5.43,5.15-11.09,7.12-16.95-16.23,12.41-50.58,20.42-75.4,15.6-31.31-6.09-72.19,21.75-90.02,36.1-9.47,7.62-22.38,8.13-32.4,6.93,2.71,2.15,5.49,4.2,8.37,6.12,17.51-.08,36.81-11.93,53.18-24.79,24.35-19.14,59.15-11.31,59.15-11.31Z"/>
  </g>
  <g>
    <path class="st1" d="M1426.41,737.24c-1.62,3.38-3.84,6.2-6.66,8.48-2.83,2.28-6.13,3.98-9.91,5.12-3.78,1.14-7.84,1.71-12.17,1.71h-12.88v23.12h-16.96v-77.07h31.49c4.62,0,8.75.64,12.39,1.93,3.63,1.29,6.72,3.1,9.25,5.45,2.53,2.35,4.48,5.16,5.83,8.42,1.36,3.27,2.04,6.88,2.04,10.84v.22c0,4.48-.81,8.41-2.42,11.78ZM1411.66,725.57c0-3.82-1.23-6.72-3.69-8.7-2.46-1.98-5.82-2.97-10.07-2.97h-13.1v23.56h13.43c4.26,0,7.56-1.12,9.91-3.36,2.35-2.24,3.52-5.01,3.52-8.31v-.22Z"/>
    <path class="st1" d="M1474.19,775.66v-6.39c-2.06,2.28-4.51,4.09-7.38,5.45-2.86,1.36-6.35,2.04-10.46,2.04-2.79,0-5.41-.38-7.87-1.16-2.46-.77-4.61-1.93-6.44-3.47-1.84-1.54-3.29-3.43-4.35-5.67-1.06-2.24-1.6-4.83-1.6-7.76v-.22c0-3.23.59-6.02,1.76-8.37,1.17-2.35,2.81-4.29,4.9-5.83,2.09-1.54,4.59-2.7,7.49-3.47,2.9-.77,6.11-1.16,9.63-1.16,3.01,0,5.63.22,7.87.66,2.24.44,4.42,1.03,6.55,1.76v-.99c0-3.52-1.06-6.2-3.19-8.04-2.13-1.83-5.28-2.75-9.47-2.75-3.23,0-6.07.28-8.53.83-2.46.55-5.05,1.34-7.76,2.37l-4.18-12.77c3.23-1.39,6.61-2.53,10.13-3.41,3.52-.88,7.78-1.32,12.77-1.32,9.17,0,15.85,2.24,20.04,6.72,4.18,4.48,6.28,10.72,6.28,18.72v34.24h-16.18ZM1474.52,751.88c-1.47-.66-3.1-1.19-4.9-1.6-1.8-.4-3.73-.61-5.78-.61-3.6,0-6.42.7-8.48,2.09-2.06,1.39-3.08,3.41-3.08,6.05v.22c0,2.28.84,4.04,2.53,5.28,1.69,1.25,3.89,1.87,6.61,1.87,3.96,0,7.14-.95,9.52-2.86,2.38-1.91,3.58-4.4,3.58-7.49v-2.97Z"/>
    <path class="st1" d="M1505.57,775.66v-80.37h16.73v80.37h-16.73Z"/>
    <path class="st1" d="M1572.62,775.66v-6.39c-2.05,2.28-4.51,4.09-7.38,5.45-2.86,1.36-6.35,2.04-10.46,2.04-2.79,0-5.41-.38-7.87-1.16-2.46-.77-4.61-1.93-6.44-3.47-1.84-1.54-3.29-3.43-4.35-5.67-1.06-2.24-1.6-4.83-1.6-7.76v-.22c0-3.23.59-6.02,1.76-8.37,1.17-2.35,2.81-4.29,4.9-5.83,2.09-1.54,4.59-2.7,7.49-3.47,2.9-.77,6.11-1.16,9.63-1.16,3.01,0,5.63.22,7.87.66,2.24.44,4.42,1.03,6.55,1.76v-.99c0-3.52-1.06-6.2-3.19-8.04-2.13-1.83-5.28-2.75-9.47-2.75-3.23,0-6.07.28-8.53.83-2.46.55-5.05,1.34-7.76,2.37l-4.18-12.77c3.23-1.39,6.61-2.53,10.13-3.41,3.52-.88,7.78-1.32,12.77-1.32,9.17,0,15.85,2.24,20.04,6.72,4.18,4.48,6.28,10.72,6.28,18.72v34.24h-16.19ZM1572.95,751.88c-1.47-.66-3.1-1.19-4.9-1.6-1.8-.4-3.73-.61-5.78-.61-3.6,0-6.42.7-8.48,2.09-2.06,1.39-3.08,3.41-3.08,6.05v.22c0,2.28.84,4.04,2.53,5.28,1.69,1.25,3.89,1.87,6.61,1.87,3.96,0,7.14-.95,9.52-2.86,2.38-1.91,3.58-4.4,3.58-7.49v-2.97Z"/>
    <path class="st1" d="M1640.55,775.66v-32.84c0-3.95-.88-6.94-2.64-8.95s-4.26-3.02-7.49-3.02-5.78,1.01-7.65,3.02c-1.87,2.01-2.81,5-2.81,8.95v32.84h-16.74v-59.01h16.74v8.44c.95-1.26,2-2.46,3.14-3.6,1.14-1.15,2.4-2.16,3.8-3.05,1.39-.89,2.93-1.59,4.62-2.11,1.69-.52,3.6-.78,5.73-.78,6.39,0,11.32,1.95,14.81,5.83,3.49,3.89,5.23,9.25,5.23,16.07v38.2h-16.73Z"/>
    <path class="st1" d="M1699.12,775.72c-2.13.62-4.59.94-7.38.94-2.57,0-4.9-.28-6.99-.83s-3.89-1.52-5.39-2.92c-1.5-1.39-2.68-3.21-3.52-5.45-.84-2.24-1.27-5.08-1.27-8.53v-27.96h-7.05v-14.31h7.05v-15.08h16.73v15.08h13.87v14.31h-13.87v25.21c0,3.82,1.8,5.73,5.39,5.73,2.94,0,5.69-.7,8.26-2.09v13.43c-1.76,1.03-3.71,1.85-5.83,2.48Z"/>
    <path class="st1" d="M1718.27,775.66v-59.01h16.74v59.01h-16.74ZM1719.48,710.15l12.44-19.49,14.42,6.28-14.09,13.21h-12.77Z"/>
    <path class="st1" d="M1785.43,733.05c-5.58,0-9.96,1.69-13.16,5.06-3.19,3.38-4.79,8.63-4.79,15.74v21.8h-16.74v-59.01h16.74v11.89c1.69-4.04,4-7.27,6.94-9.69,2.93-2.42,6.9-3.52,11.89-3.3v17.51h-.88Z"/>
    <path class="st1" d="M1797.1,710.15v-14.86h17.62v14.86h-17.62ZM1797.54,775.66v-59.01h16.74v59.01h-16.74Z"/>
    <path class="st1" d="M1931.42,775.66l-9.8-21.58h-45.47l-9.8,21.58h-5.94l35.89-77.62h5.5l35.89,77.62h-6.28ZM1898.94,704.32l-20.37,44.59h40.62l-20.26-44.59Z"/>
    <path class="st1" d="M2008.15,733.05c-1.62,3.08-3.8,5.65-6.55,7.71-2.75,2.06-5.95,3.6-9.58,4.62-3.63,1.03-7.47,1.54-11.5,1.54h-20.81v28.74h-5.72v-77.07h27.96c4.26,0,8.13.53,11.62,1.6,3.49,1.06,6.5,2.61,9.03,4.62,2.53,2.02,4.5,4.48,5.89,7.38,1.39,2.9,2.09,6.22,2.09,9.96v.22c0,4.04-.81,7.6-2.42,10.68ZM2004.85,722.48c0-3.1-.57-5.81-1.71-8.14-1.14-2.33-2.74-4.26-4.79-5.81-2.06-1.55-4.51-2.73-7.38-3.54s-6.02-1.22-9.47-1.22h-21.8v37.98h21.14c3.6,0,6.86-.44,9.8-1.33,2.93-.89,5.45-2.16,7.54-3.82s3.72-3.67,4.9-6.04c1.17-2.36,1.76-4.98,1.76-7.86v-.22Z"/>
    <path class="st1" d="M2028.3,775.66v-77.07h5.72v77.07h-5.72Z"/>
  </g>
  <g>
    <circle class="st8" cx="2369.49" cy="161.4" r="130.45"/>
    <ellipse class="st5" cx="2376.09" cy="164.33" rx="126.16" ry="127.23"/>
    <g class="st10">
      <path class="st7" d="M2238.41,211.1s13.92-42.4,63.5-59.36c49.58-16.96,54.15,3.26,98.5-45.66,0,0,17.61-42.4,60.67-37.18,43.06,5.22,90.02,70.88,90.02,70.88l-7.83,148.96-159.83,34.57-152-8.48,6.96-103.72Z"/>
    </g>
    <ellipse class="st9" cx="2312.96" cy="72.89" rx="20.93" ry="12.17" transform="translate(234.59 1090.47) rotate(-27.89)"/>
    <path class="st0" d="M2365.36,199.61c29.14-2.17,46.97-8.7,50.45-21.74,3.48-13.05,28.27-10,28.27-10,18.66,0,43.75-14.71,56.05-22.74-.6-3.59-1.32-7.13-2.21-10.61-34.05,31.91-70.59,27.23-74.28,19.44-3.91-8.26,9.13-11.31,9.13-11.31,37.84-3.91,53.06-30.88,53.06-30.88-20.01,21.74-46.53,23.92-46.53,23.92,0,0-25.66-3.48-27.83,24.79-2.17,28.27-46.97,21.31-46.97,21.31-27.83-1.74-64.37,36.53-64.37,36.53-5.54,7.78-15.83,13.75-27.48,18.31,2.71,3.88,5.63,7.61,8.75,11.16,9.47-3.33,18.54-8.4,26.12-15.98,33.49-33.49,57.84-32.18,57.84-32.18Z"/>
    <path class="st0" d="M2418.53,233.42c31.44,7.16,55.51-2.51,70.02-11.7,2.77-5.43,5.15-11.09,7.12-16.95-16.23,12.41-50.58,20.42-75.4,15.6-31.31-6.09-72.19,21.75-90.02,36.1-9.47,7.62-22.38,8.13-32.4,6.93,2.71,2.15,5.49,4.2,8.37,6.12,17.51-.08,36.81-11.93,53.18-24.79,24.35-19.14,59.15-11.31,59.15-11.31Z"/>
  </g>
</svg>